<?xml version="1.0" standalone="no"?>
<!DOCTYPE svg PUBLIC "-//W3C//DTD SVG 20010904//EN"
 "http://www.w3.org/TR/2001/REC-SVG-20010904/DTD/svg10.dtd">
<svg version="1.0" xmlns="http://www.w3.org/2000/svg"
 width="1340.000000pt" height="766.000000pt" viewBox="0 0 1340.000000 766.000000"
 preserveAspectRatio="xMidYMid meet">

<g transform="translate(0.000000,766.000000) scale(0.100000,-0.100000)"
fill="#000000" stroke="none">
<path d="M2850 3810 l0 -790 165 0 165 0 0 350 0 350 310 0 310 0 0 -350 0
-350 165 0 165 0 0 790 0 790 -165 0 -165 0 0 -300 0 -300 -310 0 -310 0 0
300 0 300 -165 0 -165 0 0 -790z"/>
<path d="M4333 4038 c5 -627 7 -654 72 -784 60 -122 173 -209 327 -252 92 -25
398 -25 481 1 158 49 264 131 322 251 65 133 67 158 72 784 l5 562 -171 0
-171 0 0 -517 c0 -285 -5 -547 -10 -583 -5 -35 -22 -89 -37 -119 -22 -43 -39
-60 -83 -85 -53 -30 -60 -31 -170 -31 -93 0 -122 4 -153 19 -56 28 -93 69
-119 134 -23 57 -23 58 -26 620 l-3 562 -170 0 -171 0 5 -562z"/>
<path d="M5820 3810 l0 -790 419 0 c436 0 512 6 606 45 184 78 300 297 266
505 -21 128 -87 223 -194 277 l-38 19 49 34 c53 36 102 102 123 165 8 22 13
79 13 130 -2 160 -65 271 -190 337 -119 63 -169 68 -639 68 l-415 0 0 -790z
m850 487 c58 -30 75 -62 75 -144 0 -84 -18 -116 -81 -148 -35 -18 -62 -20
-286 -23 l-248 -3 0 171 0 172 253 -4 c218 -3 257 -5 287 -21z m17 -614 c70
-38 88 -73 88 -174 0 -76 -3 -90 -27 -126 -17 -26 -45 -49 -75 -64 -46 -23
-59 -24 -295 -27 l-248 -4 0 212 0 211 258 -3 c243 -3 259 -4 299 -25z"/>
</g>
</svg>
